Patient4_TMGait_0pt4_01_right_16_EMG.mot
version=1
nRows=26
nColumns=33
inDegrees=no
endheader
time	1LAddLong	2LGlutMax	3LGlutMed	4LIliopsoas	5LSemiMemb	6LBicFemLong	7LRecFem	8LVastMed	9LVastLat	10LGasMed	11LTibAnt	12lTibPost	13LPeroneusLong	14LSol	15LExtDigLong	16LFlexDigLong	17RAddLong	18RGlutMax	19RGlutMed	20RIliopsoas	21RSemiMemb	22RBicFemLong	23RRecFem	24RVastMed	25RVastLat	26RGasMed	27RTibAnt	28RTibPost	29RPeroneusLong	30RSol	31RExtDigLong	32RFlexDigLong
20.63	-0.012665	0.04425	-0.069122	0.005493	-0.057831	-0.044861	0.024414	-0.05188	-0.004578	-0.095367	-0.010071	-0.003357	0.13855	0.046082	-0.2269	-0.023193	-0.071716	0.082245	0.43137	0.066528	0.21927	-0.064392	0.16068	-0.039368	0.00412	-0.007782	-0.27969	0.001526	-0.11337	0.071106	-0.002899	-0.003662
20.631	-0.003662	0.054932	-0.12161	-0.004578	-0.08728	-0.00351	0.03006	-0.000153	0.001831	-0.080109	-0.04303	0.001984	0.13931	-0.022583	-0.41397	-0.029449	-0.068359	0.063629	0.098724	0.032043	0.19898	-0.093689	0.15167	-0.072021	-0.015869	-0.007935	-0.14648	-0.001068	0.007935	0.14786	-0.002441	-0.000305
20.632	-0.002441	0.02243	-0.21606	-0.007782	-0.06485	0.002899	0.045319	-0.024872	0.010986	-0.070648	-0.043488	0.00061	-0.074768	-0.11597	-0.21698	-0.011139	-0.083466	-0.003204	-0.18158	-0.001678	0.20859	-0.13336	0.14984	-0.033264	-0.024261	-0.002289	-0.021057	0	0.015717	0.11917	-0.010223	-0.000458
20.633	0.012054	0.031586	-0.16892	0.019836	-0.038147	-0.004883	0.033569	-0.009155	0.01358	-0.093079	-0.033875	0.006409	-0.079498	-0.006256	-0.10803	-0.016785	-0.091095	-0.038605	-0.168	-0.003357	0.21194	-0.12375	0.1329	0.001526	-0.018616	-0.009155	0.015869	0.001984	-0.032654	0.096283	0.004272	-0.007782
20.634	0.011292	-0.004425	0.010071	-0.00351	0.094604	-0.066833	0.032959	-0.014801	0.017853	-0.089874	-0.000153	0.000305	-0.12085	0.063477	-0.18616	-0.019989	-0.082092	-0.00412	0.011749	0.075073	0.21774	-0.098419	0.12405	0.003052	-0.002594	-0.007782	0.03952	0.002899	-0.031128	0.084991	-0.001984	-0.00473
20.635	0.009308	-0.063171	-0.053253	0.001526	0.11047	-0.051422	0.094757	-0.00946	0.029602	-0.060272	-0.028229	0.006714	-0.041351	-0.016785	-0.17578	-0.018768	-0.066833	-0.072327	0.069427	0.16861	0.21332	-0.086365	0.068665	-0.010681	-0.024414	-0.009155	0.069122	0.000153	-0.046539	0.073395	-0.002747	-0.007629
20.636	0.006256	-0.06424	-0.20935	-0.004425	0.062408	-0.032349	0.11093	-0.013885	0.017242	-0.030518	-0.081635	0.005493	0.13901	-0.14587	0.038757	-0.013123	-0.043793	-0.11154	-0.26184	0.2449	0.21713	-0.066681	-0.021362	-0.02533	-0.037231	-0.002747	0.045166	0.003815	-0.040588	-0.009613	0.000305	-0.014801
20.637	0.003204	-0.019073	-0.075836	0.006409	0.052185	-0.014648	0.11307	-0.008087	-0.007782	0.001373	-0.076752	-0.000763	0.10742	-0.069885	0.22156	-0.011444	0.003204	-0.090179	-0.25452	0.16663	0.20645	-0.060577	-0.011444	-0.045624	-0.014038	-0.010529	0.18906	0.000763	-0.15945	-0.098114	-0.002289	-0.007172
20.638	0.003967	0.008392	0.035095	0.006866	0.045776	0.007935	0.09964	-0.005188	0.011139	0.063019	-0.059204	0.003967	0.013733	0.06073	0.2179	-0.004425	0.029755	-0.019836	0.048523	0.096588	0.19073	-0.052338	0.018921	-0.056305	-0.012665	-0.005341	0.10925	-0.00061	-0.13458	-0.07309	-0.002441	-0.010834
20.639	-0.000458	-0.006561	0.008087	0.005188	0.021057	0.076141	0.087738	0.005951	-0.016785	0.075989	0.023804	0.000153	-0.009155	0.07843	0.48187	-0.005646	0.027161	-0.084686	0.18097	0.052338	0.1915	-0.045929	0.002899	-0.045319	-0.001526	-0.008545	-0.11566	0.000305	-0.061798	-0.074158	0.001221	-0.013123
20.64	0.00061	0.009308	0.019836	-0.009155	0.014191	0.093079	0.047455	0.009613	-0.055237	0.092316	0.19562	-0.000458	0.053101	0.048218	-0.04425	-0.012665	0.016479	-0.057526	0.092163	0.022125	0.19043	-0.040741	0.014038	-0.062103	-0.009308	-0.000153	-0.18707	0.001221	0.079041	-0.12329	-0.000305	-0.013885
20.641	-0.001526	0.014648	-0.004272	-0.008698	-0.003357	0.079651	-0.063934	0.007629	-0.12909	0.11963	0.2002	-0.006714	0.081177	0.056915	0.24368	-0.01297	0.012817	-0.095978	-0.030823	0.028229	0.17227	-0.03891	-0.097198	-0.057526	-0.000153	0.001831	-0.032654	0.009155	0.10864	-0.097351	0.003815	-0.008698
20.642	0.002441	0.027771	-0.04425	0.00351	-0.00061	0.02655	-0.07431	0.001831	-0.090485	0.15076	0.027466	0.002899	0.021057	0.040588	0.2594	-0.012817	0.011902	-0.11337	-0.20599	-0.032959	0.14648	-0.044098	-0.028992	-0.055237	-0.007782	-0.001068	0.20569	0	0.11322	-0.061035	0.000305	-0.009003
20.643	0.002747	0.036774	-0.12863	-0.005188	0.014954	0.005188	-0.045471	0.004272	-0.032196	0.12894	-0.078125	0.004883	0.011597	-0.065613	-0.051575	-0.016479	0.021667	-0.14694	-0.32486	-0.005188	0.15015	-0.065155	0.081482	-0.062408	-0.006104	0.000763	0.28748	0.00061	0.044556	-0.015869	-0.000458	-0.004883
20.644	-0.000305	0.032501	-0.11505	0.006714	0.005188	-0.002289	0.016174	0.014343	-0.012207	0.083466	-0.23178	0.008545	0.08194	-0.12985	-0.24567	-0.019531	-0.000763	-0.11215	-0.31143	-0.061188	0.12604	-0.041809	0.13489	-0.10117	0.001831	-0.006409	0.18448	-0.000458	0.000916	0.053558	-0.001526	-0.009003
20.645	0.000305	0.056915	0.036316	0.017548	0.014496	0.013123	0.007324	0.012207	0.031281	0.049896	-0.12161	0.006409	0.047302	-0.043182	0.11246	-0.020447	-0.00351	-0.056305	-0.17349	-0.050507	0.10681	-0.048981	0.060883	-0.17181	-0.00351	-0.005798	0.054321	-0.001373	0.056458	0.044861	-0.000458	-0.010834
20.646	0.001984	0.055542	0.12466	-0.003204	0.011139	0.014496	0.002594	0.013885	0.03952	0.034637	-0.093994	0.001068	0.011139	0.059204	-0.054169	-0.00885	0.068359	-0.024261	-0.068512	-0.015717	0.098724	-0.074768	-0.092926	-0.14175	-0.007324	-0.003662	-0.17975	-0.001221	0.019684	-0.035095	-0.000153	-0.008698
20.647	0	0.044861	0.032654	0.013428	0.007782	0.015717	0.002594	-0.000153	0.098267	-0.001373	-0.10941	0.005646	0.076294	0.037689	-0.096588	-0.012054	0.15259	-0.027466	-0.087128	-0.093842	0.085907	-0.087433	-0.045471	-0.17746	0.001221	-0.007019	-0.13519	0.001984	0.026093	-0.063477	-0.003662	-0.007629
20.648	0.005188	0.019836	-0.059052	0.014496	-0.000153	0.018158	0.035553	0.005798	0.09903	0.017395	-0.11688	0.00824	0.005341	-0.059662	-0.12894	-0.00824	0.15152	-0.087891	-0.1416	0.014801	0.065765	-0.1265	0.004578	-0.17197	0.003967	-0.009766	-0.021515	-0.000458	0.06958	0.004272	-0.007324	-0.012207
20.649	0.000916	0.0177	-0.12924	0.009613	-0.007172	-0.00473	-0.009308	0.000916	0.056915	0.049133	0.04364	0.006256	0.062866	-0.093384	-0.059967	-0.014801	0.15533	-0.07431	-0.098267	0.22873	0.071564	-0.1648	0.071106	-0.13519	-0.01709	-0.00061	-0.069885	-0.000153	0.065308	0.041656	-0.001526	-0.006561
20.65	0.003815	0.049438	-0.17746	0.009155	-0.014038	0.008698	-0.042419	-0.003662	0.036469	0.040588	0.18738	0.001678	0.00885	-0.021362	0.29083	-0.00412	0.24475	-0.10376	-0.002899	0.29724	0.085602	-0.20126	0.16129	-0.11398	-0.021057	-0.008545	0.11017	-0.001221	-0.2124	-0.007477	-0.001526	-0.005035
20.651	-0.003052	0.079803	0.070038	-0.020142	0.005035	0.003967	-0.045013	0.003662	0.024719	0.00412	0.10437	0.003357	-0.022278	0.030823	0.25101	0.008392	0.21759	-0.10727	0.33981	0.088043	0.10696	-0.17548	0.14847	-0.065155	-0.007019	-0.011139	0.095215	-0.000305	-0.51865	-0.004883	-0.001068	-0.007935
20.652	-0.010071	0.064087	0.049438	-0.00412	-0.014343	0.032196	-0.023499	0.005951	0.027161	-0.033875	0.080261	0.009613	-0.047455	0.018616	0.29068	0.002136	0.13657	-0.11078	-0.080109	-0.11581	0.075073	-0.15106	0.1265	-0.10574	-0.02655	-0.000916	0.31845	-0.000916	-0.34225	-0.018616	-0.001526	-0.007477
20.653	-0.01236	0.008087	-0.06073	-0.020599	-0.039063	0.032654	0.010529	0.009308	0.022888	-0.03006	0.073853	0.004272	-0.042419	-0.003204	-0.20355	-0.002747	0.012207	-0.13489	-0.49194	-0.1799	0.05127	-0.14282	0.062561	-0.077362	-0.028534	0.002441	0.61874	-0.00061	0.023651	-0.0737	-0.001831	-0.015564
20.654	-0.014954	0.045319	-0.012207	-0.01297	-0.056305	0.049438	-0.005341	0.015717	0.01358	-0.018616	-0.12039	0.030518	0.017548	0.027466	-0.082855	0.003357	-0.073853	-0.11017	-0.49027	-0.13626	0.05722	-0.1326	0.075684	-0.045166	-0.017548	0.007172	0.40024	0.002136	0.44617	-0.097809	-0.000153	-0.015411
20.655	-0.032501	0.046539	-0.023804	-0.011292	-0.088348	0.049133	0.012207	0.016022	0.018616	-0.018311	-0.29556	0.014038	0.056305	0.019836	-0.49362	0.013885	-0.10529	-0.13443	-0.33417	0.17761	0.05249	-0.10696	0.052948	-0.023041	0.001831	0.001831	0.168	-0.000458	0.15243	-0.087128	-0.003052	-0.00824
